<svg id="files_and_folder" xmlns="http://www.w3.org/2000/svg" width="149.517" height="121.964" viewBox="0 0 149.517 121.964">
  <path id="Caminho_165" data-name="Caminho 165" d="M144.361,141.69H140.8v-1.422h3.561a1.773,1.773,0,1,0,0-3.545H140.8V135.3h3.561a3.2,3.2,0,1,1,0,6.39Z" transform="translate(-95.807 -86.445)" fill="#595dc3"/>
  <path id="Caminho_166" data-name="Caminho 166" d="M144.361,141.69H140.8v-1.422h3.561a1.773,1.773,0,1,0,0-3.545H140.8V135.3h3.561a3.2,3.2,0,1,1,0,6.39Z" transform="translate(-95.807 -86.445)" fill="#fff" opacity="0.61"/>
  <ellipse id="Elipse_24" data-name="Elipse 24" cx="74.759" cy="10.399" rx="74.759" ry="10.399" transform="translate(0 101.165)" fill="#e6e6e6" opacity="0.45"/>
  <path id="Caminho_167" data-name="Caminho 167" d="M250.252,89.311c-.7,10.858-5.885,37.933-40.932,22.705l1.206-3.576s17.32,3.056,21.9-3.37c3.875-5.442,3.813-23.288,12.368-22.437a6.23,6.23,0,0,1,5.457,6.679Z" transform="translate(-129.017 -60.905)" fill="#595dc3"/>
  <path id="Caminho_168" data-name="Caminho 168" d="M250.252,89.311c-.7,10.858-5.885,37.933-40.932,22.705l1.206-3.576s17.32,3.056,21.9-3.37c3.875-5.442,3.813-23.288,12.368-22.437a6.23,6.23,0,0,1,5.457,6.679Z" transform="translate(-129.017 -60.905)" opacity="0.08"/>
  <path id="Caminho_169" data-name="Caminho 169" d="M226.086,52.387a24.379,24.379,0,0,0,2.061,6.277,1.994,1.994,0,0,0,2.731.747,4.411,4.411,0,0,0,2.453-4.123l.232-3.664a3.561,3.561,0,0,0-2.52-3.262C228.441,47.414,225.535,50.027,226.086,52.387Z" transform="translate(-137.11 -44.212)" fill="#f4a28c"/>
  <path id="Caminho_170" data-name="Caminho 170" d="M239.091,57.22l7.714,7.787-4.607,5L237.36,60.7Z" transform="translate(-142.607 -48.602)" fill="#f4a28c"/>
  <path id="Caminho_171" data-name="Caminho 171" d="M235.744,58.994s-.376-1.484.763-1.675,1.7,1.953.242,2.577Z" transform="translate(-141.795 -48.644)" fill="#f4a28c"/>
  <path id="Caminho_172" data-name="Caminho 172" d="M226.617,61.1l-.654,1.768a.639.639,0,0,0,.644.861l1.546-.124Z" transform="translate(-137.063 -50.483)" fill="#f4a28c"/>
  <path id="Caminho_173" data-name="Caminho 173" d="M260.777,248.79a3.38,3.38,0,0,1-2.85,1.757c-1.819-.124-2.577,1.546-1.031,2.273s6.05-.732,6.05-.732l.283-2.618Z" transform="translate(-151.672 -141.451)" fill="#595dc3"/>
  <path id="Caminho_174" data-name="Caminho 174" d="M307.149,242.4a3.357,3.357,0,0,1,.165,3.344c-.995,1.536.134,3,1.5,1.989s2.283-5.669,2.283-5.669l-2.159-1.51Z" transform="translate(-176.328 -137.462)" fill="#595dc3"/>
  <path id="Caminho_175" data-name="Caminho 175" d="M238.87,64.515A8.009,8.009,0,0,0,239.545,62s3,2.772.989,5.72Z" transform="translate(-143.339 -50.919)" fill="#ce8172" opacity="0.31"/>
  <path id="Caminho_176" data-name="Caminho 176" d="M263.252,169.851l-.222,41.273h5.339l6.833-41.8Z" transform="translate(-155.048 -102.934)" fill="#24285b"/>
  <path id="Caminho_177" data-name="Caminho 177" d="M242.982,73.206a15.8,15.8,0,0,1,9.436-3.458c5.566-.057,21.087.9,20.026,19.881-.788,14.068-1.19,29.631-1.19,29.631l-20.438,3.406S226.4,88.125,242.982,73.206Z" transform="translate(-142.535 -54.673)" fill="#595dc3"/>
  <path id="Caminho_178" data-name="Caminho 178" d="M267.074,85.72s-4.282,5.153-1.634,14.573,6.369,20.783-6.39,26.493l2.35,3.607,20.438-3.406.268-8.7,3.283-16.109Z" transform="translate(-153.119 -62.415)" opacity="0.08"/>
  <rect id="Retângulo_69" data-name="Retângulo 69" width="34.511" height="54.975" transform="translate(28.735 56.59)" fill="#a5a5a5" opacity="0.79"/>
  <rect id="Retângulo_70" data-name="Retângulo 70" width="29.853" height="54.975" transform="translate(43.798 56.59)" fill="#e6e6e6"/>
  <path id="Caminho_179" data-name="Caminho 179" d="M165.5,156.55l-.546,3.149H150.3v13.285h24.375V156.55Z" transform="translate(-100.411 -96.745)" fill="#ffd200"/>
  <path id="Caminho_180" data-name="Caminho 180" d="M165.5,156.55l-.546,3.149H150.3v13.285h24.375V156.55Z" transform="translate(-100.411 -96.745)" opacity="0.08"/>
  <path id="Caminho_181" data-name="Caminho 181" d="M172.412,156.55l-.546,3.149H157.21v13.285h24.375V156.55Z" transform="translate(-103.76 -96.745)" fill="#ffd200"/>
  <path id="Caminho_182" data-name="Caminho 182" d="M251.251,117.668l1,3.716L238.78,127.16l6.333,14.764,22.406-9.611-5.158-12.023-1.175-2.742-1.5-3.5Z" transform="translate(-143.295 -76.146)" fill="#ffd200"/>
  <path id="Caminho_183" data-name="Caminho 183" d="M251.251,117.668l1,3.716L238.78,127.16l6.333,14.764,22.406-9.611-5.158-12.023-1.175-2.742-1.5-3.5Z" transform="translate(-143.295 -76.146)" opacity="0.08"/>
  <path id="Caminho_184" data-name="Caminho 184" d="M257.6,114.942l1,3.721-13.471,5.772,6.333,14.764,22.4-9.606-5.153-12.028-1.175-2.736-1.5-3.5Z" transform="translate(-146.373 -74.828)" fill="#ffd200"/>
  <path id="Caminho_185" data-name="Caminho 185" d="M178.127,156.55l-.546,3.149H162.93v13.285H187.3V156.55Z" transform="translate(-106.533 -96.745)" fill="#ffd200"/>
  <path id="Caminho_186" data-name="Caminho 186" d="M178.127,156.55l-.546,3.149H162.93v13.285H187.3V156.55Z" transform="translate(-106.533 -96.745)" opacity="0.08"/>
  <rect id="Retângulo_71" data-name="Retângulo 71" width="23.143" height="15.743" transform="translate(55.993 58.989) rotate(-8.28)" fill="#24285b"/>
  <rect id="Retângulo_72" data-name="Retângulo 72" width="23.143" height="15.743" transform="translate(55.993 58.989) rotate(-8.28)" fill="#fff" opacity="0.12"/>
  <rect id="Retângulo_73" data-name="Retângulo 73" width="23.143" height="15.743" transform="translate(57.195 56.757) rotate(-8.28)" fill="#24285b"/>
  <path id="Caminho_187" data-name="Caminho 187" d="M185.037,156.55l-.546,3.149H169.84v13.285h24.375V156.55Z" transform="translate(-109.882 -96.745)" fill="#ffd200"/>
  <rect id="Retângulo_74" data-name="Retângulo 74" width="38.412" height="14.996" transform="translate(48.523 66.927)" fill="#a5a5a5"/>
  <path id="Caminho_188" data-name="Caminho 188" d="M276.149,124a109.354,109.354,0,0,1-7.215,8.384,32.865,32.865,0,0,1-6.529,5.112c-1.386.85-2.845,2.365-1.865,4.736h7.632l9.972-13.527Z" transform="translate(-153.687 -80.969)" opacity="0.08"/>
  <rect id="Retângulo_75" data-name="Retângulo 75" width="26.292" height="14.996" transform="translate(60.639 66.927)" fill="#f2f2f2"/>
  <rect id="Retângulo_76" data-name="Retângulo 76" width="30.415" height="14.996" transform="translate(48.523 88.854)" fill="#f2f2f2"/>
  <rect id="Retângulo_77" data-name="Retângulo 77" width="8.704" height="9.482" transform="translate(38.593 47.309)" fill="#595dc3"/>
  <circle id="Elipse_25" data-name="Elipse 25" cx="2.108" cy="2.108" r="2.108" transform="translate(72.141 71.715)" fill="#a5a5a5"/>
  <circle id="Elipse_26" data-name="Elipse 26" cx="2.108" cy="2.108" r="2.108" transform="translate(62.076 93.647)" fill="#a5a5a5"/>
  <path id="Caminho_189" data-name="Caminho 189" d="M204.082,133.992a11.42,11.42,0,0,0-4.257.644c-2.283.8-4.4,2.839-2.767,5.22,1.257,1.835,3.04.886,3.705-.582s1.067-2.891,2.334-2.355Z" transform="translate(-122.795 -85.807)" fill="#f4a28c"/>
  <path id="Caminho_190" data-name="Caminho 190" d="M279.984,74.21a26.663,26.663,0,0,1,14.944,13.955,18.758,18.758,0,0,1-.562,17.114c-3.025,5.287-9.224,11.219-21.937,13.785l-1.479-3.716,12.141-10.662a6.277,6.277,0,0,0,.3-9.168C279.783,91.912,275.2,86.6,273.13,81a5.308,5.308,0,0,1,6.854-6.792Z" transform="translate(-158.887 -56.672)" fill="#595dc3"/>
  <path id="Caminho_191" data-name="Caminho 191" d="M279.984,74.21a26.663,26.663,0,0,1,14.944,13.955,18.758,18.758,0,0,1-.562,17.114c-3.025,5.287-9.224,11.219-21.937,13.785l-1.479-3.716,12.141-10.662a6.277,6.277,0,0,0,.3-9.168C279.783,91.912,275.2,86.6,273.13,81a5.308,5.308,0,0,1,6.854-6.792Z" transform="translate(-158.887 -56.672)" fill="#fff" opacity="0.2"/>
  <path id="Caminho_192" data-name="Caminho 192" d="M264.82,155.623s-5.669-.618-6.184,1.546-.866,3.473-.866,3.473a15.511,15.511,0,0,0,8.07-2.484Z" transform="translate(-152.499 -96.256)" fill="#f4a28c"/>
  <path id="Caminho_193" data-name="Caminho 193" d="M286.336,165.83a53.993,53.993,0,0,1,.093,7.926A121.031,121.031,0,0,1,284.8,186.17a11.966,11.966,0,0,0,1.391,7.884l5.153,9.168-3.741,3.731-6.138-7.977a33.434,33.434,0,0,1-6.266-13.914l-1.953-9.966-4.921-6.256Z" transform="translate(-157.617 -101.242)" fill="#24285b"/>
  <path id="Caminho_194" data-name="Caminho 194" d="M221.439,44.018s-1.592,3.679,2.211,3.86,3.757-.593,3.757-.593.237,4.916,3.53,4.3l1.366-1.381s1.546-6.272-1.134-7.647C231.168,42.56,225.819,37.061,221.439,44.018Z" transform="translate(-134.73 -40.497)" fill="#24285b"/>
  <path id="Caminho_195" data-name="Caminho 195" d="M235.68,59.346s.2-3.205,2-2.407S238.3,61.232,235.68,59.346Z" transform="translate(-141.793 -48.404)" fill="#f4a28c"/>
  <path id="Caminho_196" data-name="Caminho 196" d="M99.067,95.681s6.127-3.932,0-9.43-8.529,7.215-13-1.376S92.94,67.013,80.4,66.323s-4.695-8.611-15.491-9.544S51.2,74.97,59.444,76.233s16.15,1.773,13.914,9.673,6.184,10.049,10.136,8.116,9.173,1.659,9.173,1.659Z" transform="translate(-54.074 -48.372)" fill="#e6e6e6" opacity="0.45"/>
  <path id="Caminho_197" data-name="Caminho 197" d="M90.987,234.978s-6.107-1.639-7.457-7.307c0,0,9.441-1.948,9.75,7.8Z" transform="translate(-68.05 -131.138)" fill="#595dc3" opacity="0.58"/>
  <path id="Caminho_198" data-name="Caminho 198" d="M97.5,228.527s-4.288-6.7-.567-13.027a10.828,10.828,0,0,1,4.05,13.027Z" transform="translate(-73.809 -125.316)" fill="#595dc3" opacity="0.73"/>
  <path id="Caminho_199" data-name="Caminho 199" d="M101.59,232.788s2.221-7.122,9.018-8.5c0,0,1.3,4.638-4.37,8.5Z" transform="translate(-76.803 -129.576)" fill="#595dc3"/>
  <path id="Caminho_200" data-name="Caminho 200" d="M93.01,240.51l1.273,8.451h7.781l1.113-8.451Z" transform="translate(-72.644 -137.438)" fill="#24285b"/>
</svg>
