<svg xmlns="http://www.w3.org/2000/svg" width="158.514" height="123.017" viewBox="0 0 158.514 123.017">
  <g id="checklist_" transform="translate(0)">
    <path id="Caminho_201" data-name="Caminho 201" d="M113.59,117.1s5.083-23.912,17.874-23.912,19.594,37.591-11.517,41.68Z" transform="translate(-93.298 -61.447)" fill="#f4a28c"/>
    <path id="Caminho_202" data-name="Caminho 202" d="M113.59,117.1s5.083-23.912,17.874-23.912,19.594,37.591-11.517,41.68Z" transform="translate(-93.298 -61.447)" opacity="0.1"/>
    <rect id="Retângulo_78" data-name="Retângulo 78" width="79.578" height="98.686" transform="translate(31.034 5.932)" fill="#24285b"/>
    <rect id="Retângulo_79" data-name="Retângulo 79" width="63.888" height="84.426" transform="translate(38.736 11.92)" fill="#fff"/>
    <rect id="Retângulo_80" data-name="Retângulo 80" width="34.798" height="14.774" transform="translate(53.851 0)" fill="#ffd200"/>
    <rect id="Retângulo_81" data-name="Retângulo 81" width="15.785" height="3.48" transform="translate(67.351 49.79)" fill="#a8a8a8" opacity="0.21"/>
    <rect id="Retângulo_82" data-name="Retângulo 82" width="25.007" height="3.48" transform="translate(67.351 56.705)" fill="#a8a8a8" opacity="0.21"/>
    <rect id="Retângulo_83" data-name="Retângulo 83" width="15.785" height="3.48" transform="translate(67.351 72.166)" fill="#a8a8a8" opacity="0.21"/>
    <rect id="Retângulo_84" data-name="Retângulo 84" width="25.007" height="3.48" transform="translate(67.351 79.087)" fill="#a8a8a8" opacity="0.21"/>
    <rect id="Retângulo_85" data-name="Retângulo 85" width="14.26" height="14.26" transform="translate(46.863 25.47)" fill="#595dc3"/>
    <rect id="Retângulo_86" data-name="Retângulo 86" width="14.26" height="14.26" transform="translate(46.863 47.718)" fill="#595dc3"/>
    <rect id="Retângulo_87" data-name="Retângulo 87" width="14.26" height="14.26" transform="translate(46.863 69.965)" fill="#595dc3"/>
    <path id="Caminho_203" data-name="Caminho 203" d="M169.75,93.061l1.681,2.452L174.917,91" transform="translate(-118.089 -60.48)" fill="none" stroke="#fff" stroke-linecap="round" stroke-linejoin="round" stroke-width="4"/>
    <path id="Caminho_204" data-name="Caminho 204" d="M169.75,132.827l1.681,2.452,3.485-4.519" transform="translate(-118.089 -78.032)" fill="none" stroke="#fff" stroke-linecap="round" stroke-linejoin="round" stroke-width="4"/>
    <path id="Caminho_205" data-name="Caminho 205" d="M205.22,150.592l-2.1,3.653,7.071-.9,7.5-2.726a32.375,32.375,0,0,0,10.261,9.786,33.514,33.514,0,0,1,15.321,17.8l.179.5V144.627l-9.842-10.317Z" transform="translate(-132.82 -79.599)" opacity="0.1"/>
    <path id="Caminho_206" data-name="Caminho 206" d="M169.75,172.891l1.681,2.452,3.485-4.513" transform="translate(-118.089 -95.72)" fill="none" stroke="#fff" stroke-linecap="round" stroke-linejoin="round" stroke-width="4"/>
    <path id="Caminho_207" data-name="Caminho 207" d="M253.33,127.854s-8.032-7.2-19.924-2.234c-9.311,3.91-4.9,8.507.1,8.311s13.405-3.608,12.819,4.7c-.531,7.323-9.613-3.206-14.819-2.793s-4.608,6.328,1.8,9.574,15.416,10.272,22.426,4.753S260.742,134.847,253.33,127.854Z" transform="translate(-143.785 -74.992)" fill="#f4a28c"/>
    <rect id="Retângulo_88" data-name="Retângulo 88" width="5.708" height="49.857" transform="translate(119.838 43.778) rotate(64.33)" fill="#595dc3"/>
    <path id="Caminho_208" data-name="Caminho 208" d="M269.62,163.982l28.123,45.785,22.946-19.589L280.333,150.51Z" transform="translate(-162.175 -86.75)" fill="#595dc3"/>
    <path id="Caminho_209" data-name="Caminho 209" d="M206.609,153.41l-6,6.189,8.473-1.045Z" transform="translate(-131.712 -88.031)" fill="#24285b"/>
    <path id="Caminho_210" data-name="Caminho 210" d="M122.439,112.735s9.875-10.093,14.137-9.2c3.519.743,3.525,7.742-4.145,13.573a13.59,13.59,0,0,0-5.39,9.92,14.321,14.321,0,0,1-4.6,10.054c-6.954,6.144-12.115.793-11.445-7.518S112.116,118.8,122.439,112.735Z" transform="translate(-92.126 -65.989)" fill="#f4a28c"/>
    <path id="Caminho_211" data-name="Caminho 211" d="M111.416,156.764l-3.714,51.36L77.26,202.287,92.57,151.05Z" transform="translate(-77.26 -86.989)" fill="#595dc3"/>
    <rect id="Retângulo_89" data-name="Retângulo 89" width="15.785" height="3.48" transform="translate(67.351 27.04)" fill="#a8a8a8" opacity="0.21"/>
    <rect id="Retângulo_90" data-name="Retângulo 90" width="25.007" height="3.48" transform="translate(67.351 33.955)" fill="#a8a8a8" opacity="0.21"/>
    <path id="Caminho_212" data-name="Caminho 212" d="M110.49,208.206l6.6-51.806,9,2.726-3.714,51.36Z" transform="translate(-91.929 -89.35)" opacity="0.1"/>
    <path id="Caminho_213" data-name="Caminho 213" d="M269.62,169.7l4.96-6.239,33.313,43.361-10.149,8.663Z" transform="translate(-162.175 -92.467)" opacity="0.1"/>
  </g>
</svg>
