<svg xmlns="http://www.w3.org/2000/svg" width="39.438" height="39.438" viewBox="0 0 39.438 39.438">
  <g id="Grupo_13" data-name="Grupo 13" transform="translate(-250 -374)">
    <path id="Caminho_135" data-name="Caminho 135" d="M92.246,146.739a19.586,19.586,0,0,1-30.646,0,31.871,31.871,0,0,1,8.936-4.4,21.514,21.514,0,0,1,12.8,0,31.994,31.994,0,0,1,8.909,4.4Z" transform="translate(192.812 259.185)" fill="#6165d4"/>
    <path id="Caminho_136" data-name="Caminho 136" d="M109.941,148.671l-1.931,10.3c-.16.019-.32.033-.48.044q-.827.074-1.677.074a18.651,18.651,0,0,1-1.892-.094,1.09,1.09,0,0,1-.276-.025l-2.146-10.3A19.879,19.879,0,0,1,109.941,148.671Z" transform="translate(163.888 254.222)" fill="#231f20"/>
    <ellipse id="Elipse_22" data-name="Elipse 22" cx="7.629" cy="8.743" rx="7.629" ry="8.743" transform="translate(262.105 379.509)" fill="#fff"/>
    <path id="Caminho_137" data-name="Caminho 137" d="M96.764,82.334c-4.286,0-7.764-3.988-7.764-8.89,0-5.2.552-8.884,7.77-8.884s7.77,3.682,7.77,8.884C104.534,78.345,101.048,82.334,96.764,82.334Zm0-17.487c-6.964,0-7.488,3.4-7.488,8.6,0,4.752,3.359,8.614,7.488,8.614s7.486-3.861,7.486-8.6c0-5.2-.521-8.611-7.486-8.611Z" transform="translate(172.969 314.809)" fill="#231f20"/>
    <path id="Caminho_138" data-name="Caminho 138" d="M134.61,102.444c.372-2.328,4.237-2.9,4.046-.157a4.041,4.041,0,0,1-1.032,2.576,2.393,2.393,0,0,1-2.59.607" transform="translate(139.939 288.815)" fill="#fff"/>
    <path id="Caminho_139" data-name="Caminho 139" d="M135.464,105.456a2.088,2.088,0,0,1-.863-.179.142.142,0,1,1,.116-.259,2.237,2.237,0,0,0,2.433-.576,3.948,3.948,0,0,0,.99-2.482A1.375,1.375,0,0,0,136.9,100.3a2.356,2.356,0,0,0-2.526,1.859.146.146,0,0,1-.163.119.141.141,0,0,1-.119-.165,2.648,2.648,0,0,1,2.841-2.093,1.665,1.665,0,0,1,1.487,1.969,4.157,4.157,0,0,1-1.07,2.667A2.692,2.692,0,0,1,135.464,105.456Z" transform="translate(140.315 289.138)" fill="#231f20"/>
    <path id="Caminho_140" data-name="Caminho 140" d="M89.034,102.444c-.372-2.328-4.239-2.9-4.052-.157a4.052,4.052,0,0,0,1.029,2.576,2.4,2.4,0,0,0,2.593.607" transform="translate(175.884 288.815)" fill="#fff"/>
    <path id="Caminho_141" data-name="Caminho 141" d="M87.441,105.376a2.7,2.7,0,0,1-1.889-.827,4.217,4.217,0,0,1-1.07-2.667,1.667,1.667,0,0,1,1.489-1.969,2.649,2.649,0,0,1,2.841,2.093.143.143,0,0,1-.119.165.146.146,0,0,1-.163-.119A2.354,2.354,0,0,0,86,100.194a1.4,1.4,0,0,0-1.238,1.655,3.988,3.988,0,0,0,.99,2.482,2.23,2.23,0,0,0,2.433.576.142.142,0,0,1,.116.259A2.088,2.088,0,0,1,87.441,105.376Z" transform="translate(176.247 289.218)" fill="#231f20"/>
    <path id="Caminho_142" data-name="Caminho 142" d="M101.56,126.357a4.432,4.432,0,0,0,4.1,2.278,4.921,4.921,0,0,0,4.3-2.278l-.408-8.947h-7.59Z" transform="translate(163.874 276.536)" fill="#fff"/>
    <path id="Caminho_143" data-name="Caminho 143" d="M105.305,128.41a4.619,4.619,0,0,1-4.226-2.361.144.144,0,0,1,0-.066l.408-8.947a.141.141,0,0,1,.141-.135H109.2a.143.143,0,0,1,.143.135l.405,8.947a.124.124,0,0,1-.017.074A5.111,5.111,0,0,1,105.305,128.41Zm-3.952-2.452a4.271,4.271,0,0,0,3.952,2.165,4.83,4.83,0,0,0,4.137-2.171l-.389-8.768h-7.3Z" transform="translate(164.224 276.905)" fill="#231f20"/>
    <path id="Caminho_144" data-name="Caminho 144" d="M102.679,128.813a6.22,6.22,0,0,0,2.289,2c1.5.827,3.743,1.765,5.56,1.487l-.3-3.784a17.118,17.118,0,0,1-4.016.025,11.439,11.439,0,0,1-3.464-.67C102.574,127.793,102.456,128.455,102.679,128.813Z" transform="translate(163.152 268.964)" fill="#231f20"/>
    <path id="Caminho_145" data-name="Caminho 145" d="M109.508,132.12a11.24,11.24,0,0,1-4.934-1.553,6.25,6.25,0,0,1-2.339-2.052,1.078,1.078,0,0,1-.017-1.07.221.221,0,0,1,.276-.066,11.845,11.845,0,0,0,3.417.659,16.923,16.923,0,0,0,3.986-.025.141.141,0,0,1,.1.028.132.132,0,0,1,.05.1l.284,3.784a.138.138,0,0,1-.116.146A4.735,4.735,0,0,1,109.508,132.12Zm-7.1-4.471a.891.891,0,0,0,.055.72h0a5.952,5.952,0,0,0,2.237,1.958c1.194.659,3.45,1.716,5.348,1.487l-.276-3.511a17.231,17.231,0,0,1-3.9,0,11.576,11.576,0,0,1-3.47-.654Zm-.041-.019Z" transform="translate(163.494 269.333)" fill="#231f20"/>
    <path id="Caminho_146" data-name="Caminho 146" d="M101.987,97.265h.623a5.334,5.334,0,0,0,5.334-5.337V83.48a22.716,22.716,0,0,1-5.646.532,22.756,22.756,0,0,1-5.649-.532v8.448A5.337,5.337,0,0,0,101.987,97.265Z" transform="translate(167.429 301.107)" fill="#fff"/>
    <path id="Caminho_147" data-name="Caminho 147" d="M107.2,82.726v8.448a5.334,5.334,0,0,1-5.334,5.337h-.629A5.337,5.337,0,0,1,95.9,91.174V82.726a22.756,22.756,0,0,0,5.649.532,22.716,22.716,0,0,0,5.646-.532M95.9,82.45a.3.3,0,0,0-.171.055.276.276,0,0,0-.113.229v8.448a5.627,5.627,0,0,0,5.621,5.613h.623a5.629,5.629,0,0,0,5.621-5.621V82.726a.3.3,0,0,0-.113-.229.3.3,0,0,0-.174-.055.248.248,0,0,0-.077,0,23.2,23.2,0,0,1-5.569.521A22.865,22.865,0,0,1,96,82.453a.276.276,0,0,0-.08,0Z" transform="translate(168.176 301.861)" fill="#231f20"/>
    <path id="Caminho_148" data-name="Caminho 148" d="M114.548,102.971a6.312,6.312,0,0,1-.767-.044.334.334,0,0,1-.254-.171c-.394-.656.645-3.453.858-4.008a.147.147,0,1,1,.276.1c-.474,1.233-1.131,3.343-.883,3.759a.058.058,0,0,0,.047.036,7.255,7.255,0,0,0,1.511,0,.143.143,0,0,1,.16.124.141.141,0,0,1-.124.157,7.194,7.194,0,0,1-.825.044Z" transform="translate(155.271 290.12)" fill="#231f20"/>
    <path id="Caminho_149" data-name="Caminho 149" d="M65.337,84.533a19.718,19.718,0,1,1,15.421-7.447,19.718,19.718,0,0,1-15.421,7.447Zm0-39.166A19.462,19.462,0,1,0,80.562,76.953,19.252,19.252,0,0,0,84.8,64.818,19.486,19.486,0,0,0,65.337,45.345Z" transform="translate(204.397 328.905)" fill="#231f20"/>
    <path id="Caminho_150" data-name="Caminho 150" d="M112.98,160.848l-1.44-1.109,1.44-1.109,1.437,1.109Z" transform="translate(156.646 246.685)" fill="#fff"/>
    <path id="Caminho_151" data-name="Caminho 151" d="M113.859,171.189q-.827.074-1.677.074a18.651,18.651,0,0,1-1.892-.094l1.3-6.068v-.072h.941l.014.074Z" transform="translate(157.552 242.05)" fill="#fff"/>
    <path id="Caminho_152" data-name="Caminho 152" d="M150.467,165.386h-.019a.141.141,0,0,1-.121-.16l.676-5.094a.146.146,0,0,1,.16-.124.143.143,0,0,1,.124.16l-.679,5.1A.141.141,0,0,1,150.467,165.386Z" transform="translate(128.559 245.688)" fill="#231f20"/>
    <path id="Caminho_153" data-name="Caminho 153" d="M81.313,165.379a.143.143,0,0,1-.141-.124l-.676-5.1a.143.143,0,0,1,.121-.16.146.146,0,0,1,.16.124l.684,5.094a.143.143,0,0,1-.124.16Z" transform="translate(179.128 245.695)" fill="#231f20"/>
  </g>
</svg>
