<svg xmlns="http://www.w3.org/2000/svg" width="150.164" height="96.797" viewBox="0 0 150.164 96.797">
  <g id="search_engine" transform="translate(0 0)">
    <path id="Caminho_68" data-name="Caminho 68" d="M113.747,79.719S98.483,68.427,83.225,69.963,52.55,91.173,52.55,91.173l4.94,3.744s25.6-21.24,39.467-5.537S113.747,79.719,113.747,79.719Z" transform="translate(-49.809 -69.819)" fill="#6165d4"/>
    <path id="Caminho_69" data-name="Caminho 69" d="M113.747,79.719S98.483,68.427,83.225,69.963,52.55,91.173,52.55,91.173l4.94,3.744s25.6-21.24,39.467-5.537S113.747,79.719,113.747,79.719Z" transform="translate(-49.809 -69.819)" fill="#fff" opacity="0.2"/>
    <rect id="Retângulo_33" data-name="Retângulo 33" width="52.409" height="33.861" transform="translate(0 8.324)" fill="#ffd200"/>
    <path id="Caminho_70" data-name="Caminho 70" d="M191.635,183.873a6.639,6.639,0,0,1-4.559-3.413v-.049l-23.389-44.54-12.873,9.114,9.1,28.62a4.9,4.9,0,0,1-4.9,6.377c-6.915-.316-14.271-.494-21.912-.494-39.477,0-71.481,4.6-71.481,10.274s32,10.279,71.481,10.279,71.456-4.6,71.456-10.264C204.567,187.573,199.781,185.543,191.635,183.873Z" transform="translate(-54.403 -103.244)" fill="#e6e6e6" opacity="0.45"/>
    <path id="Caminho_71" data-name="Caminho 71" d="M170.774,238.18s.731,2.47,2.9,2.761,2.623,2.47.632,2.914-6.915-2.346-6.915-2.346l.311-3.137Z" transform="translate(-107.922 -155.017)" fill="#6165d4"/>
    <path id="Caminho_72" data-name="Caminho 72" d="M82.676,233.621s-2.509.543-2.964,2.682-2.657,2.425-2.964.405S79.619,230,79.619,230l3.1.558Z" transform="translate(-62.043 -150.877)" fill="#6165d4"/>
    <path id="Caminho_73" data-name="Caminho 73" d="M89.148,162.67s-2.312,10.788,6.011,15.412,34.577-3.7,30.522,22.5h5.858s7.572-21.734-12.072-29.46l-5.962-6.762Z" transform="translate(-68.179 -116.805)" fill="#24285b"/>
    <rect id="Retângulo_34" data-name="Retângulo 34" width="2.756" height="18.039" transform="matrix(0.723, 0.691, -0.691, 0.723, 99.8, 36.173)" fill="#ffd200"/>
    <rect id="Retângulo_35" data-name="Retângulo 35" width="2.756" height="18.039" transform="matrix(0.723, 0.691, -0.691, 0.723, 99.8, 36.173)" opacity="0.08"/>
    <rect id="Retângulo_36" data-name="Retângulo 36" width="2.756" height="18.039" transform="matrix(0.723, 0.691, -0.691, 0.723, 98.829, 35.24)" fill="#ffd200"/>
    <ellipse id="Elipse_11" data-name="Elipse 11" cx="8.397" cy="5.602" rx="8.397" ry="5.602" transform="matrix(0.691, -0.723, 0.723, 0.691, 92.341, 37.874)" fill="#ffd200"/>
    <ellipse id="Elipse_12" data-name="Elipse 12" cx="8.397" cy="5.602" rx="8.397" ry="5.602" transform="matrix(0.691, -0.723, 0.723, 0.691, 92.341, 37.874)" opacity="0.08"/>
    <ellipse id="Elipse_13" data-name="Elipse 13" cx="8.397" cy="5.602" rx="8.397" ry="5.602" transform="matrix(0.691, -0.723, 0.723, 0.691, 91.368, 36.948)" fill="#ffd200"/>
    <ellipse id="Elipse_14" data-name="Elipse 14" cx="5.547" cy="3.7" rx="5.547" ry="3.7" transform="matrix(0.691, -0.723, 0.723, 0.691, 94.712, 36.202)" fill="#fff" opacity="0.57"/>
    <path id="Caminho_74" data-name="Caminho 74" d="M209.884,86.566a24.454,24.454,0,0,1-4.391,4.826,1.976,1.976,0,0,1-2.761-.435,4.357,4.357,0,0,1-.543-4.7l1.274-3.393a3.527,3.527,0,0,1,3.6-1.9C209.76,81.128,211.336,84.665,209.884,86.566Z" transform="translate(-125.293 -75.447)" fill="#f4a28c"/>
    <path id="Caminho_75" data-name="Caminho 75" d="M196.532,86.25,186.48,90.3l1.235,7.153,7.246-5.913Z" transform="translate(-117.582 -78.134)" fill="#f4a28c"/>
    <path id="Caminho_76" data-name="Caminho 76" d="M208.256,84.809a15.8,15.8,0,0,1-2.618-2.519,3.285,3.285,0,0,1-2.287,2.776,2.667,2.667,0,0,1-3.161-1.23l3.26-3.853a4.006,4.006,0,0,1,3.833-1.482,14.753,14.753,0,0,1,1.823.435c1.482.494,2.514,2.578,4.144,2.648a.948.948,0,0,1,.766,1.437c-.8,1.329-2.549,3.018-4.688,2.341A3.68,3.68,0,0,1,208.256,84.809Z" transform="translate(-124.52 -74.183)" fill="#24285b"/>
    <path id="Caminho_77" data-name="Caminho 77" d="M205.721,90.2s.939-1.186,0-1.823-2.317,1.072-1.255,2.213Z" transform="translate(-126.49 -79.141)" fill="#f4a28c"/>
    <path id="Caminho_78" data-name="Caminho 78" d="M212.751,96.31l-.119,1.862a.632.632,0,0,1-.934.494l-1.339-.741Z" transform="translate(-129.667 -83.225)" fill="#f4a28c"/>
    <path id="Caminho_79" data-name="Caminho 79" d="M199.3,95.112a7.271,7.271,0,0,1,1.111-3.1,5.778,5.778,0,0,0-3.744,5.261Z" transform="translate(-122.739 -81.049)" fill="#ce8172" opacity="0.31"/>
    <path id="Caminho_80" data-name="Caminho 80" d="M67.66,124.535s-.158-23.3,27.83-28.225l-16.444,29.1H67.685Z" transform="translate(-57.455 -83.225)" opacity="0.08"/>
    <path id="Caminho_81" data-name="Caminho 81" d="M139.948,98.368l-.83-4.826a11.786,11.786,0,0,0-7.069-8.951,20.919,20.919,0,0,0-4.984-1.309,23.622,23.622,0,0,0-8.7.9,38.279,38.279,0,0,0-27.924,31.559l-.988,6.693,24.357,1.694s-1.235-6.915,7.409-6.915S140.807,117.306,139.948,98.368Z" transform="translate(-68.481 -76.574)" fill="#6165d4"/>
    <path id="Caminho_82" data-name="Caminho 82" d="M116.079,98.79s-11.82,2.08-24.812,20.8L89.45,130.344l18.484,1.373Z" transform="translate(-68.481 -84.48)" opacity="0.08"/>
    <path id="Caminho_83" data-name="Caminho 83" d="M145.578,105.192c2.307-7.7-6.639-13.92-13.016-9.03-5.335,4.085-11.361,11.44-11.6,23.853-.41,22.4,21.048,18.4,50.088,9.815l-.924-6.525s-34.775,6.575-30.053-4.727C142.051,113.852,144.353,109.287,145.578,105.192Z" transform="translate(-84.426 -82.272)" fill="#6165d4"/>
    <path id="Caminho_84" data-name="Caminho 84" d="M145.578,105.192c2.307-7.7-6.639-13.92-13.016-9.03-5.335,4.085-11.361,11.44-11.6,23.853-.41,22.4,21.048,18.4,50.088,9.815l-.924-6.525s-34.775,6.575-30.053-4.727C142.051,113.852,144.353,109.287,145.578,105.192Z" transform="translate(-84.426 -82.272)" fill="#fff" opacity="0.2"/>
    <path id="Caminho_85" data-name="Caminho 85" d="M115.981,179.9s.716,24.772-28.269,29.405l-1.121-5.251s23.216-5.755,8.219-21.171Z" transform="translate(-67.034 -125.524)" fill="#24285b"/>
    <ellipse id="Elipse_15" data-name="Elipse 15" cx="3.151" cy="1.166" rx="3.151" ry="1.166" transform="translate(91.452 85.357)" opacity="0.08"/>
    <ellipse id="Elipse_16" data-name="Elipse 16" cx="3.151" cy="1.166" rx="3.151" ry="1.166" transform="translate(103.504 82.339)" opacity="0.08"/>
    <ellipse id="Elipse_17" data-name="Elipse 17" cx="3.151" cy="1.166" rx="3.151" ry="1.166" transform="translate(115.641 84.67)" opacity="0.08"/>
    <ellipse id="Elipse_18" data-name="Elipse 18" cx="3.151" cy="1.166" rx="3.151" ry="1.166" transform="translate(134.224 85.841)" opacity="0.08"/>
    <ellipse id="Elipse_19" data-name="Elipse 19" cx="3.221" cy="1.195" rx="3.221" ry="1.195" transform="translate(79.434 82.018)" opacity="0.08"/>
    <path id="Caminho_86" data-name="Caminho 86" d="M220.86,155.323s7.992-.845,8.694,2.277-.83,4.777-8.022,2.47Z" transform="translate(-134.98 -113.035)" fill="#f4a28c"/>
    <path id="Caminho_87" data-name="Caminho 87" d="M59.67,154.326s1.151,4.663,5.76,3.68S66.748,151.3,59.67,154.326Z" transform="translate(-53.412 -112.141)" fill="#f4a28c"/>
  </g>
</svg>
